<svg xmlns="http://www.w3.org/2000/svg" viewBox="0 0 180 160"><g><g><g><g><path fill="#df6040" d="M104.49 136.705c0 5.262.83 8.493 2.585 9.693 1.753 1.2 6.553 2.215 14.03 2.215 4.431 0 7.293-.83 8.677-2.492 1.385-1.662 1.846-5.446 1.846-10.616 0-5.261-.923-8.492-2.584-9.784-1.662-1.293-6.462-2.031-13.939-2.031-4.43 0-7.292.83-8.677 2.492-1.384 1.662-1.938 5.262-1.938 10.523z"/></g><g><path fill="#df6040" d="M138.37 140.858c0 8.031 1.385 13.016 3.97 14.862 2.584 1.846 10.153 3.323 21.6 3.323 6.738 0 11.168-1.2 13.292-3.785 2.123-2.584 2.769-8.307 2.769-16.246 0-8.03-1.293-13.015-3.97-14.861-2.676-1.846-9.876-3.231-21.323-3.231-6.738 0-11.169 1.2-13.292 3.785-2.123 2.584-3.046 8.123-3.046 16.153z"/></g><g><path fill="#df6040" d="M0 62.77c0-25.2 2.677-42.924 9.323-50.862C15.97 3.969 30 0 51.323 0c36.185 0 59.17 4.062 67.477 9.877 8.308 5.815 12.462 21.508 12.462 46.985 0 25.292-2.031 43.569-8.677 51.507-6.647 7.939-20.77 12-42 12-36.185 0-59.816-4.707-68.123-10.523C4.154 104.031 0 88.431 0 62.954zm75.508-.282c.092-7.752.461-14.673.461-15.042h-6.554c-.738 17.81.185 27.5 1.847 29.991 1.657 2.485 5.058 2.95 10.753 3.045 5.697-.097 9.373-1.112 10.754-3.045 1.385-1.938 2.585-12.18 1.846-29.99h-6.553c0 .368.369 8.489.461 15.04.092 6.553-.461 9.782-1.108 10.797-.646 1.016-1.107 1.477-5.353 1.477-4.247 0-4.893-.461-5.447-1.477-.646-1.015-1.2-3.045-1.107-10.796zm6.507 17.994h-.046.093-.047zm39.37-6.267c-1.833.271-3.688.364-5.539.277-6.83-.092-7.57-.646-8.308-1.754-.738-1.107-1.384-4.43-1.292-10.707 0-4.616.462-7.016 1.57-8.123 1.107-1.108 4.338-1.385 8.584-1.293 2.215 0 4.43.277 4.985.277a43.385 43.385 0 0 0-.277-5.815 23.63 23.63 0 0 0-3.046-.092c-7.108-.185-11.816.646-14.124 2.307-2.307 1.662-4.061 5.17-4.153 10.523-.093 9.231 1.107 14.954 2.861 16.985 1.754 2.03 6 3.23 13.2 3.415h4.892c.277-.092.739-5.907.647-5.907zM23.169 62.492a.185.185 0 0 0-.03.014l-.062.079zm11.908-15.138h-8.123s-6.462 9.692-9.416 12.554a1.57 1.57 0 0 1-.923.461h-1.569c-.016-4.35.23-8.696.739-13.015H9.323c-.738 8.954-.37 22.615.462 32.4h6.646a122.677 122.677 0 0 1-1.293-13.846h2.031c1.2.277 2.308 1.569 6.739 7.938 1.384 1.846 2.677 3.97 3.969 5.908h7.661c-5.538-8.4-9.415-13.662-12.461-16.8v-.185a.185.185 0 0 1 .062-.263zm18.37 15.23l12.091-15.23h-8.123S50.954 57.046 48 59.908c-.26.234-.58.394-.923.461h-1.57c-.016-4.35.23-8.696.74-13.015h-6.462c-.831 8.954-.37 22.615.461 32.4h6.646A122.68 122.68 0 0 1 45.6 65.908h2.03c1.108.277 2.308 1.569 6.74 7.938 1.384 1.846 2.676 3.97 3.968 5.908H66c-5.538-8.4-9.415-13.662-12.462-16.8 0-.092-.092-.092-.092-.185 0-.092-.092-.184 0-.277z"/></g></g></g></g></svg>